<svg width="20" height="20" viewBox="0 0 20 20" fill="none" xmlns="http://www.w3.org/2000/svg">
<g clip-path="url(#clip0_0_878)">
<rect width="20" height="20" rx="10" fill="#242424"/>
<path d="M-11.5774 32.4625H-20.9224C-21.0408 32.4625 -21.1492 32.5297 -21.2021 32.6356C-21.2549 32.7419 -21.2433 32.8688 -21.1717 32.9634L-16.5624 39.0697V41.3669C-16.5624 41.5397 -16.4224 41.6794 -16.2499 41.6794C-16.0774 41.6794 -15.9374 41.5397 -15.9374 41.3669V39.0697L-11.328 32.9634C-11.2564 32.8688 -11.2449 32.7419 -11.2977 32.6356C-11.3505 32.5297 -11.4586 32.4625 -11.5774 32.4625ZM-16.2499 38.4459L-20.2949 33.0875H-12.2046L-16.2499 38.4459ZM220 19.375C214.831 19.375 210.625 15.1694 210.625 10C210.625 4.83063 214.831 0.625 220 0.625C225.169 0.625 229.375 4.83063 229.375 10C229.375 15.1694 225.169 19.375 220 19.375ZM220 1.25C215.175 1.25 211.25 5.17531 211.25 10C211.25 14.8247 215.175 18.75 220 18.75C224.825 18.75 228.75 14.8247 228.75 10C228.75 5.17531 224.825 1.25 220 1.25Z" fill="#FF4100"/>
<path d="M10 0.525391C15.2246 0.525391 19.4746 4.7754 19.4746 10C19.4746 15.2246 15.2246 19.4746 10 19.4746C4.7754 19.4746 0.525391 15.2246 0.525391 10C0.525391 4.7754 4.7754 0.525391 10 0.525391ZM10 1.34961C5.23054 1.34961 1.34961 5.23054 1.34961 10C1.34961 14.7695 5.23054 18.6504 10 18.6504C14.7695 18.6504 18.6504 14.7695 18.6504 10C18.6504 5.23054 14.7695 1.34961 10 1.34961ZM36.25 7.52246C37.6165 7.52246 38.7285 8.6335 38.7285 10C38.7285 11.3665 37.6165 12.4775 36.25 12.4775C34.8835 12.4775 33.7725 11.3665 33.7725 10C33.7725 8.63351 34.8838 7.52246 36.25 7.52246ZM36.25 8.34766C35.3387 8.34766 34.5977 9.08897 34.5977 10C34.5977 10.911 35.3387 11.6523 36.25 11.6523C37.1613 11.6523 37.9033 10.911 37.9033 10C37.9033 9.08899 37.1613 8.34766 36.25 8.34766Z" fill="#FF4100" stroke="#FF4100" stroke-width="0.2"/>
<path d="M-16.25 -0.0996094C-11.0254 -0.0996094 -6.77539 4.1504 -6.77539 9.375C-6.77539 14.5996 -11.0254 18.8496 -16.25 18.8496C-21.4746 18.8496 -25.7246 14.5996 -25.7246 9.375C-25.7246 4.1504 -21.4746 -0.0996094 -16.25 -0.0996094ZM-16.25 0.724609C-21.0195 0.724609 -24.9004 4.60554 -24.9004 9.375C-24.9004 14.1445 -21.0195 18.0254 -16.25 18.0254C-11.4805 18.0254 -7.59961 14.1445 -7.59961 9.375C-7.59961 4.60554 -11.4805 0.724609 -16.25 0.724609ZM11.5977 4.10059C11.9446 3.8132 12.4618 3.79179 12.834 4.03223C12.8907 4.0689 12.9456 4.11123 12.9951 4.16113H12.9941L15.2139 6.38086C15.6171 6.78448 15.6172 7.44038 15.2139 7.84375L9.3457 13.7119C9.29344 13.7642 9.22736 13.8021 9.15527 13.8203L4.99707 14.8799C4.96329 14.8885 4.92908 14.8926 4.89551 14.8926C4.78743 14.8926 4.68187 14.8498 4.60352 14.7715C4.50082 14.6688 4.45931 14.5189 4.49512 14.3779L5.55469 10.2197C5.57292 10.1476 5.60984 10.0816 5.66211 10.0293L11.5312 4.16113L11.5977 4.10059ZM6.3252 10.5332L5.46582 13.9082L8.84082 13.0488L13.4854 8.40527L10.9688 5.88867L6.3252 10.5332ZM12.4111 4.74414C12.333 4.66626 12.1927 4.6667 12.1143 4.74512L11.5527 5.30566L14.0684 7.82129L14.6299 7.26074C14.7015 7.18913 14.7107 7.07831 14.6572 6.99707L14.6299 6.96387L12.4111 4.74414Z" fill="#FF4100" stroke="#FF4100" stroke-width="0.2"/>
<path d="M-16.667 8.08063C-16.2364 8.08063 -15.8857 7.73032 -15.8857 7.29938C-15.8857 6.86844 -16.2364 6.51813 -16.667 6.51813C-17.0976 6.51813 -17.4482 6.86844 -17.4482 7.29938C-17.4482 7.73032 -17.0976 8.08063 -16.667 8.08063ZM-16.667 7.14313C-16.5807 7.14313 -16.5107 7.21344 -16.5107 7.29938C-16.5107 7.38531 -16.5807 7.45563 -16.667 7.45563C-16.7532 7.45563 -16.8232 7.38531 -16.8232 7.29938C-16.8232 7.21344 -16.7532 7.14313 -16.667 7.14313ZM228.443 -12.1781C229.04 -13.41 229.375 -14.7916 229.375 -16.25C229.375 -19.9522 227.217 -23.1591 224.094 -24.6819C224.087 -24.6853 224.08 -24.6897 224.073 -24.6925C222.84 -25.29 221.459 -25.625 220 -25.625C216.296 -25.625 213.087 -23.465 211.565 -20.3391C211.562 -20.3328 211.559 -20.3275 211.556 -20.3209C210.96 -19.0894 210.625 -17.7081 210.625 -16.25C210.625 -12.5456 212.785 -9.33687 215.911 -7.81531C215.917 -7.81219 215.923 -7.80844 215.93 -7.80562C217.162 -7.20937 218.542 -6.875 220 -6.875C223.703 -6.875 226.91 -9.03312 228.432 -12.1569C228.436 -12.1644 228.44 -12.1706 228.443 -12.1781ZM228.75 -16.25C228.75 -15.0369 228.501 -13.8809 228.053 -12.83L220.443 -20.4406L224.02 -24.0181C226.827 -22.5591 228.75 -19.6259 228.75 -16.25ZM220.001 -19.9984L223.751 -16.2478L220.001 -12.4975L216.25 -16.2478L220.001 -19.9984ZM220 -25C221.213 -25 222.37 -24.7512 223.421 -24.3028L219.78 -20.6616L215.808 -16.69L212.231 -20.2675C213.689 -23.0759 216.623 -25 220 -25ZM211.25 -16.25C211.25 -17.4625 211.498 -18.6178 211.946 -19.6684L215.587 -16.0269L219.559 -12.0556L215.984 -8.48031C213.175 -9.93812 211.25 -12.8725 211.25 -16.25ZM220 -7.5C218.788 -7.5 217.633 -7.74812 216.582 -8.19562L220.221 -11.8341L220.222 -11.8347L224.193 -15.8066L227.768 -12.2312C226.31 -9.42344 223.376 -7.5 220 -7.5ZM193.75 -6.875C188.581 -6.875 184.375 -11.0806 184.375 -16.25C184.375 -21.4194 188.581 -25.625 193.75 -25.625C198.919 -25.625 203.125 -21.4194 203.125 -16.25C203.125 -11.0806 198.919 -6.875 193.75 -6.875ZM193.75 -25C188.925 -25 185 -21.0747 185 -16.25C185 -11.4253 188.925 -7.5 193.75 -7.5C198.575 -7.5 202.5 -11.4253 202.5 -16.25C202.5 -21.0747 198.575 -25 193.75 -25Z" fill="#FF4100"/>
</g>
<defs>
<clipPath id="clip0_0_878">
<rect width="20" height="20" rx="10" fill="white"/>
</clipPath>
</defs>
</svg>
