<svg width="20" height="20" viewBox="0 0 20 20" fill="none" xmlns="http://www.w3.org/2000/svg">
<path d="M8.24756 13.4567C9.4205 13.3621 10.599 13.3621 11.772 13.4567L11.7827 13.4576C12.2559 13.4852 12.7276 13.5362 13.1958 13.611L13.6636 13.694C15.0279 13.9708 15.7279 14.3917 16.0044 14.9176C16.2208 15.3509 16.2207 15.8661 16.0044 16.2994C15.725 16.8312 15.0505 17.2786 13.6577 17.5221L13.645 17.524C13.0255 17.649 12.3983 17.7303 11.7681 17.7672L11.7427 17.7692C11.1689 17.8324 10.5905 17.8336 9.97314 17.8336H8.89404C8.66607 17.8058 8.4428 17.7897 8.22412 17.7887C7.5955 17.7563 6.96981 17.6787 6.35205 17.5543L6.34814 17.5533L5.86865 17.4469C4.8946 17.2007 4.33346 16.8462 4.06396 16.4264L4.00732 16.3287C3.8947 16.1133 3.83452 15.8719 3.8335 15.6256V15.6227L3.84326 15.4381C3.86385 15.2554 3.91748 15.0782 4.00146 14.9156V14.9147C4.27204 14.3897 4.97446 13.9478 6.34424 13.6949L6.3501 13.693C6.97248 13.5708 7.60223 13.4926 8.23486 13.4576L8.24756 13.4567ZM10.0024 2.16663C12.1299 2.16668 13.8783 3.94421 13.8784 6.16663C13.8784 8.38918 12.13 10.1676 10.0024 10.1676C7.87483 10.1676 6.12646 8.38921 6.12646 6.16663C6.12662 3.94418 7.87493 2.16663 10.0024 2.16663Z" stroke="#FF4100"/>
</svg>
